<svg width="40" height="40" viewBox="0 0 40 40" fill="none" xmlns="http://www.w3.org/2000/svg">
<path d="M39.5542 29.3853H39.5511L26.3139 26.3707C25.1691 27.514 24.3675 28.9989 24.0853 30.6626C17.1717 28.2452 11.7044 22.7687 9.32181 15.8614L9.325 15.8582C11.0117 15.5868 12.522 14.7852 13.6829 13.6324V13.6293L10.7102 0.463025C10.2806 0.309706 9.83486 0.191566 9.37629 0.11814C8.93378 0.0383023 8.47846 0 8.0167 0C3.61713 0 0.0449001 3.53181 0.00319088 7.90036C-1.66258e-09 7.92907 0 7.95466 0 7.98337V8.06639C0 25.6491 14.2665 39.9106 31.8999 39.9968C31.9288 40 31.9544 40 31.9833 40H32.0121C36.4277 39.9841 40 36.4171 40 32.0166C40 31.5759 39.9647 31.1416 39.8909 30.7201C39.8204 30.2603 39.705 29.8132 39.5542 29.3853Z" fill="black" fill-opacity="0.3"/>
</svg>
